HIERARCHY
ROOT Hips
{
	OFFSET 0.00000 0.00000 0.00000
	CHANNELS 6 Xposition Yposition Zposition Zrotation Yrotation Xrotation 
	JOINT LHipJoint
	{
		OFFSET 0 0 0
		CHANNELS 3 Zrotation Yrotation Xrotation
		JOINT LeftHip
		{
			OFFSET 1.62964 -1.40469 0.78906
			CHANNELS 3 Zrotation Yrotation Xrotation
			JOINT LeftKnee
			{
				OFFSET 2.29640 -6.30932 0.00000
				CHANNELS 3 Zrotation Yrotation Xrotation
				JOINT LeftAnkle
				{
					OFFSET 2.29451 -6.30412 0.00000
					CHANNELS 3 Zrotation Yrotation Xrotation
					JOINT LeftToe
					{
						OFFSET 0.03611 -0.09921 1.56387
						CHANNELS 3 Zrotation Yrotation Xrotation
						End Site
						{
							OFFSET 0.00000 -0.00000 0.80291
						}
					}
				}
			}
		}
	}
	JOINT RHipJoint
	{
		OFFSET 0 0 0
		CHANNELS 3 Zrotation Yrotation Xrotation
		JOINT RightHip
		{
			OFFSET -1.73712 -1.40469 0.78906
			CHANNELS 3 Zrotation Yrotation Xrotation
			JOINT RightKnee
			{
				OFFSET -2.28137 -6.26801 0.00000
				CHANNELS 3 Zrotation Yrotation Xrotation
				JOINT RightAnkle
				{
					OFFSET -2.28681 -6.28298 0.00000
					CHANNELS 3 Zrotation Yrotation Xrotation
					JOINT RightToe
					{
						OFFSET -0.15927 -0.43759 1.61103
						CHANNELS 3 Zrotation Yrotation Xrotation
						End Site
						{
							OFFSET -0.00000 -0.00000 0.84630
						}
					}
				}
			}
		}
	}
	JOINT lowerback
	{
		OFFSET 0 0 0
		CHANNELS 3 Zrotation Yrotation Xrotation
		JOINT Chest
		{
			OFFSET -0.04227 2.04338 -0.00225
			CHANNELS 3 Zrotation Yrotation Xrotation
			JOINT Chest2
			{
				OFFSET -0.02148 2.04482 -0.04273
				CHANNELS 3 Zrotation Yrotation Xrotation
				JOINT lowerneck
				{
					OFFSET 0 0 0
					CHANNELS 3 Zrotation Yrotation Xrotation
					JOINT Neck
					{
						OFFSET 0.09180 1.44629 0.19359
						CHANNELS 3 Zrotation Yrotation Xrotation
						JOINT Head
						{
							OFFSET 0.00887 1.40645 0.14750
							CHANNELS 3 Zrotation Yrotation Xrotation
							End Site
							{
								OFFSET -0.00669 1.50671 0.03707
							}
						}
					}
				}
				JOINT LeftCollar
				{
					OFFSET 0 0 0
					CHANNELS 3 Zrotation Yrotation Xrotation
					JOINT LeftShoulder
					{
						OFFSET 2.17674 1.86763 -0.06520
CHANNELS 3 Zrotation Xrotation Yrotation
						JOINT LeftElbow
						{
OFFSET 0 -4.657760 0.000000
CHANNELS 3 Zrotation Xrotation Yrotation
							JOINT LeftWrist
							{
OFFSET 0 -3.555390 0.000000
CHANNELS 3 Zrotation Xrotation Yrotation
								JOINT lhand
								{
									OFFSET 0 0 0
CHANNELS 3 Zrotation Xrotation Yrotation
									JOINT LFingers
									{
OFFSET 0 -0.707260 0.000000
CHANNELS 3 Zrotation Xrotation Yrotation
										End Site
										{
OFFSET 0 -0.570220 0.000000
										}
									}
								}
								JOINT LThumb
								{
OFFSET 0 0.000000 0.000000
CHANNELS 3 Zrotation Xrotation Yrotation
									End Site
									{
OFFSET 0 -0.578920 0.578920
									}
								}
							}
						}
					}
				}
				JOINT RightCollar
				{
					OFFSET 0 0 0
					CHANNELS 3 Zrotation Yrotation Xrotation
					JOINT RightShoulder
					{
						OFFSET -2.80694 1.55459 -0.32496
CHANNELS 3 Zrotation Xrotation Yrotation
						JOINT RightElbow
						{
OFFSET 0 -4.719250 -0.000000
CHANNELS 3 Zrotation Xrotation Yrotation
							JOINT RightWrist
							{
OFFSET 0 -3.569900 0.000000
CHANNELS 3 Zrotation Xrotation Yrotation
								JOINT rhand
								{
									OFFSET 0 0 0
CHANNELS 3 Zrotation Xrotation Yrotation
									JOINT RFingers
									{
OFFSET 0 -0.507760 0.000000
CHANNELS 3 Zrotation Xrotation Yrotation
										End Site
										{
OFFSET 0 -0.409370 0.000000
										}
									}
								}
								JOINT RThumb
								{
OFFSET 0 0.000000 0.000000
CHANNELS 3 Zrotation Xrotation Yrotation
									End Site
									{
OFFSET 0 -0.415620 0.415620
									}
								}
							}
						}
					}
				}
			}
		}
	}
}
MOTION
Frames: 6
Frame Time: 0.008333333333333333
9.192175 12.563197 31.111222 178.861888 3.964058 -134.740998 0.000000 0.000000 0.000000 -0.767164 -22.964559 -86.052242 20.547532 19.992106 91.601156 2.931759 -11.783693 -30.906747 5.850067 -14.281391 -44.376785 0.000000 0.000000 0.000000 0.455501 27.463555 -82.913067 -19.241084 -19.985810 87.780649 -6.644273 3.867052 -48.486058 -3.778923 11.859559 -35.237905 -4.510750 -0.699534 -1.530033 -1.629050 -0.792982 -0.929998 0.843952 -0.347768 -0.056296 1.197998 -5.629613 -0.833331 6.493071 -3.348575 -28.156354 2.018500 -0.902812 -8.515374 0.000000 0.000000 0.000000 14.124190 -3.413377 -35.274258 19.965041 -30.592341 5.517239 28.826943 -11.276261 13.947400 0.000000 0.000000 0.000000 -7.125000 0.000000 0.000000 0.941080 14.153915 0.682645 0.000000 0.000000 0.000000 -2.047062 -5.467005 19.032569 -17.830793 -27.913749 -4.483367 -15.405637 10.145871 48.913248 0.000000 0.000000 0.000000 7.125000 0.000000 0.000000 -11.422489 -11.579617 -170.911224
9.182628 12.631029 31.018502 178.803716 4.104379 -135.414968 0.000000 0.000000 0.000000 -1.362897 -23.279132 -84.282046 20.272674 19.997756 90.797272 2.858020 -11.817305 -30.508955 5.877859 -14.308835 -44.489254 0.000000 0.000000 0.000000 0.862110 27.553586 -81.224633 -19.029363 -19.977176 87.161074 -6.639014 3.962461 -48.448857 -3.639299 11.663077 -34.551878 -4.517794 -0.701647 -1.482136 -1.691629 -0.796366 -0.968391 0.784323 -0.346227 -0.123143 1.164790 -5.571403 -0.782434 6.528787 -3.324253 -27.876776 2.033956 -0.918885 -8.425583 0.000000 0.000000 0.000000 14.414822 -4.199564 -36.911845 21.102319 -31.939736 6.107545 28.648212 -12.719855 13.875480 0.000000 0.000000 0.000000 -7.125000 0.000000 0.000000 0.827179 14.260212 0.597586 0.000000 0.000000 0.000000 -2.310488 -5.835488 21.939239 -19.859534 -30.450020 -5.470763 -15.251243 7.315020 49.644680 0.000000 0.000000 0.000000 7.125000 0.000000 0.000000 -11.567814 -10.930738 -170.637937
9.174006 12.704055 30.928929 178.693753 4.168990 -135.806534 0.000000 0.000000 0.000000 -1.846904 -23.663958 -82.869145 20.009745 19.999809 90.028410 2.797157 -11.808429 -30.176146 5.822380 -14.253828 -44.264225 0.000000 0.000000 0.000000 1.030972 27.615595 -79.974197 -18.835589 -19.967345 86.593812 -6.603859 4.150976 -48.279550 -3.472574 11.423286 -33.721147 -4.484904 -0.789471 -1.779962 -1.721192 -0.889447 -0.869159 0.729838 -0.398299 0.149263 1.125814 -5.551895 -1.539917 6.534165 -3.318452 -27.465987 2.017527 -0.893521 -8.145737 0.000000 0.000000 0.000000 14.768131 -5.396446 -38.457082 22.399522 -33.419462 6.807244 29.198438 -14.267291 13.720784 0.000000 0.000000 0.000000 -7.125000 0.000000 0.000000 1.214453 14.355328 0.876582 0.000000 0.000000 0.000000 -2.755189 -6.693053 24.866313 -22.011933 -32.977696 -6.597917 -17.377178 6.240158 49.243815 0.000000 0.000000 0.000000 7.125000 0.000000 0.000000 -10.585166 -10.767804 -171.427352
9.167328 12.789197 30.837860 178.614454 4.174666 -136.234748 0.000000 0.000000 0.000000 -2.375785 -23.979901 -81.358044 19.724603 19.997973 89.194854 2.744820 -11.791401 -29.887164 5.689491 -14.120439 -43.722155 0.000000 0.000000 0.000000 1.242241 27.744393 -78.693395 -18.650864 -19.956244 86.052576 -6.562123 4.287287 -48.093490 -3.424243 11.352001 -33.476406 -4.359946 -0.782459 -2.020947 -1.819188 -0.866826 -1.153383 0.559054 -0.376179 -0.011672 1.045180 -5.352814 -0.866044 6.457872 -3.167033 -27.216822 2.012018 -0.872569 -8.182632 0.000000 0.000000 0.000000 15.417463 -5.483424 -40.236715 24.122811 -35.288327 7.779781 30.055533 -15.517208 14.285058 0.000000 0.000000 0.000000 -7.125000 0.000000 0.000000 1.735154 13.592140 1.280255 0.000000 0.000000 0.000000 -3.194504 -6.537794 27.289519 -24.497826 -35.674775 -8.000004 -17.426010 4.280142 48.559341 0.000000 0.000000 0.000000 7.125000 0.000000 0.000000 -10.479073 -11.396685 -171.653813
9.163751 12.887649 30.742406 178.424741 4.173990 -136.781694 0.000000 0.000000 0.000000 -3.169963 -24.217496 -79.694102 19.458746 19.992506 88.417186 2.695356 -11.777473 -29.611871 5.542159 -13.969051 -43.114592 0.000000 0.000000 0.000000 2.047174 27.288450 -76.289925 -18.034390 -19.904304 84.243697 -6.412090 3.997520 -47.553953 -3.599236 11.605680 -34.352745 -4.452791 -0.843511 -2.093513 -1.792931 -0.943049 -1.347082 0.636474 -0.405560 -0.164742 0.856929 -5.058367 -1.117531 6.309431 -2.929325 -26.477221 1.967410 -0.767219 -7.888360 0.000000 0.000000 0.000000 15.872512 -6.358577 -41.778428 25.543520 -36.745483 8.616722 29.146079 -15.863015 13.999749 0.000000 0.000000 0.000000 -7.125000 0.000000 0.000000 1.150808 14.047816 0.839563 0.000000 0.000000 0.000000 -3.937685 -6.678233 29.658803 -27.099276 -38.243213 -9.572627 -16.607713 2.052409 48.588625 0.000000 0.000000 0.000000 7.125000 0.000000 0.000000 -10.851163 -11.579827 -171.388250
9.162445 12.995106 30.640645 178.231255 4.160539 -137.363417 0.000000 0.000000 0.000000 -4.039713 -24.443357 -77.723833 19.057486 19.976912 87.243033 2.627339 -11.663045 -29.225120 5.441729 -13.864433 -42.697447 0.000000 0.000000 0.000000 2.578790 27.085534 -74.269712 -17.631087 -19.864142 83.058575 -6.292486 3.865132 -47.103918 -3.761823 11.835573 -35.154097 -4.576271 -0.890053 -2.187492 -1.775531 -0.996431 -1.527016 0.721916 -0.423265 -0.292233 0.706920 -4.848171 -1.461540 6.284939 -2.767588 -25.744240 1.961119 -0.703582 -7.579645 0.000000 0.000000 0.000000 16.440020 -7.086735 -43.405675 27.056942 -38.219200 9.539942 28.642731 -15.593947 13.791237 0.000000 0.000000 0.000000 -7.125000 0.000000 0.000000 0.831222 14.355086 0.599489 0.000000 0.000000 0.000000 -4.681544 -6.910519 31.662169 -29.851183 -40.722895 -11.328125 -15.958360 0.844893 49.526021 0.000000 0.000000 0.000000 7.125000 0.000000 0.000000 -11.243375 -10.867949 -170.893812
